<svg width="100%" viewBox="0 0 680 620" role="img" xmlns="http://www.w3.org/2000/svg">
  <title>YOLO-LLM 系統架構圖</title>
  <desc>雙軌非同步管線架構，包含快路徑感知層、慢路徑認知層與底層基礎設施</desc>
  <defs>
    <marker id="arrow" viewBox="0 0 10 10" refX="8" refY="5" markerWidth="6" markerHeight="6" orient="auto-start-reverse">
      <path d="M2 1L8 5L2 9" fill="none" stroke="context-stroke" stroke-width="1.5" stroke-linecap="round" stroke-linejoin="round"/>
    </marker>
    <style>
      text { font-family: sans-serif; fill: #1a1a1a; }
      .th  { font-size: 14px; font-weight: 500; }
      .ts  { font-size: 12px; font-weight: 400; fill: #555; }
      .arr { fill: none; stroke: #888; stroke-width: 1.2; }

      /* 快路徑 - teal */
      .c-teal rect  { fill: #E1F5EE; stroke: #0F6E56; }
      .c-teal .th   { fill: #085041; }
      .c-teal .ts   { fill: #0F6E56; }

      /* 慢路徑 - coral */
      .c-coral rect { fill: #FAECE7; stroke: #993C1D; }
      .c-coral .th  { fill: #4A1B0C; }
      .c-coral .ts  { fill: #993C1D; }

      /* 算力層 - blue */
      .c-blue rect  { fill: #E6F1FB; stroke: #185FA5; }
      .c-blue .th   { fill: #042C53; }
      .c-blue .ts   { fill: #185FA5; }

      /* 基礎設施 - gray */
      .c-gray rect  { fill: #F1EFE8; stroke: #5F5E5A; }
      .c-gray .th   { fill: #2C2C2A; }
      .c-gray .ts   { fill: #5F5E5A; }

      /* 觸發器 - amber */
      .c-amber rect { fill: #FAEEDA; stroke: #854F0B; }
      .c-amber .th  { fill: #412402; }

      /* 媒介閘道 - purple */
      .c-purple rect { fill: #EEEDFE; stroke: #534AB7; }
      .c-purple .th  { fill: #26215C; }
      .c-purple .ts  { fill: #534AB7; }

      /* 容器背景 */
      .bg-teal   { fill: #E1F5EE; stroke: #0F6E56; }
      .bg-coral  { fill: #FAECE7; stroke: #993C1D; }
      .bg-blue   { fill: #E6F1FB; stroke: #185FA5; }
    </style>
  </defs>

  <!-- ── 影像輸入 ── -->
  <g class="c-gray">
    <rect x="40" y="30" width="140" height="52" rx="8" stroke-width="0.5"/>
    <text class="th" x="110" y="51" text-anchor="middle" dominant-baseline="central">影像輸入源</text>
    <text class="ts" x="110" y="68" text-anchor="middle" dominant-baseline="central">攝像頭 / FFmpeg</text>
  </g>

  <!-- ── MediaMTX ── -->
  <g class="c-purple">
    <rect x="260" y="30" width="160" height="52" rx="8" stroke-width="0.5"/>
    <text class="th" x="340" y="51" text-anchor="middle" dominant-baseline="central">MediaMTX</text>
    <text class="ts" x="340" y="68" text-anchor="middle" dominant-baseline="central">媒介閘道 / 串流緩衝</text>
  </g>

  <!-- 箭頭: 輸入 → MediaMTX -->
  <line x1="180" y1="56" x2="258" y2="56" class="arr" marker-end="url(#arrow)"/>
  <text class="ts" x="219" y="48" text-anchor="middle">RTSP/RTMP</text>

  <!-- ══ 快路徑容器 ══ -->
  <rect x="40" y="130" width="280" height="180" rx="14" class="bg-teal" stroke-width="0.5" opacity="0.5"/>
  <text class="th" x="60" y="156" dominant-baseline="central" style="fill:#085041">快路徑（感知層）</text>
  <text class="ts" x="60" y="172" dominant-baseline="central">低延遲 · 持續運行</text>

  <!-- YOLO26 -->
  <g class="c-teal">
    <rect x="60" y="185" width="110" height="48" rx="8" stroke-width="0.5"/>
    <text class="th" x="115" y="205" text-anchor="middle" dominant-baseline="central">YOLO26</text>
    <text class="ts" x="115" y="222" text-anchor="middle" dominant-baseline="central">目標偵測</text>
  </g>

  <!-- CV 追蹤 -->
  <g class="c-teal">
    <rect x="192" y="185" width="110" height="48" rx="8" stroke-width="0.5"/>
    <text class="th" x="247" y="205" text-anchor="middle" dominant-baseline="central">CV 追蹤</text>
    <text class="ts" x="247" y="222" text-anchor="middle" dominant-baseline="central">資訊熵評估</text>
  </g>

  <!-- 高價值事件觸發器 -->
  <g class="c-amber">
    <rect x="60" y="257" width="240" height="40" rx="8" stroke-width="0.5"/>
    <text class="th" x="180" y="277" text-anchor="middle" dominant-baseline="central">高價值事件觸發器</text>
  </g>

  <line x1="115" y1="233" x2="115" y2="255" class="arr" marker-end="url(#arrow)"/>
  <line x1="247" y1="233" x2="247" y2="255" class="arr" marker-end="url(#arrow)"/>

  <!-- ══ 慢路徑容器 ══ -->
  <rect x="360" y="130" width="280" height="180" rx="14" class="bg-coral" stroke-width="0.5" opacity="0.5"/>
  <text class="th" x="380" y="156" dominant-baseline="central" style="fill:#4A1B0C">慢路徑（認知層）</text>
  <text class="ts" x="380" y="172" dominant-baseline="central">按需啟動 · 深度分析</text>

  <!-- LLM/VLM -->
  <g class="c-coral">
    <rect x="380" y="185" width="120" height="48" rx="8" stroke-width="0.5"/>
    <text class="th" x="440" y="205" text-anchor="middle" dominant-baseline="central">LLM / VLM</text>
    <text class="ts" x="440" y="222" text-anchor="middle" dominant-baseline="central">llama.cpp 後端</text>
  </g>

  <!-- CLIP/SigLIP -->
  <g class="c-coral">
    <rect x="516" y="185" width="110" height="48" rx="8" stroke-width="0.5"/>
    <text class="th" x="571" y="205" text-anchor="middle" dominant-baseline="central">CLIP/SigLIP</text>
    <text class="ts" x="571" y="222" text-anchor="middle" dominant-baseline="central">視覺語義對齊</text>
  </g>

  <!-- 深度分析結果輸出 -->
  <g class="c-coral">
    <rect x="380" y="257" width="240" height="40" rx="8" stroke-width="0.5"/>
    <text class="th" x="500" y="277" text-anchor="middle" dominant-baseline="central">深度分析結果輸出</text>
  </g>

  <line x1="440" y1="233" x2="440" y2="255" class="arr" marker-end="url(#arrow)"/>
  <line x1="571" y1="233" x2="571" y2="255" class="arr" marker-end="url(#arrow)"/>

  <!-- 快→慢 觸發箭頭 -->
  <line x1="300" y1="277" x2="378" y2="277" stroke="#BA7517" stroke-width="1.2" fill="none" marker-end="url(#arrow)"/>
  <text class="ts" x="339" y="269" text-anchor="middle">觸發</text>

  <!-- MediaMTX → 快路徑 -->
  <line x1="310" y1="78" x2="180" y2="128" class="arr" marker-end="url(#arrow)"/>
  <!-- MediaMTX → 慢路徑 (關鍵幀) -->
  <line x1="390" y1="82" x2="500" y2="128" class="arr" marker-end="url(#arrow)"/>
  <text class="ts" x="468" y="112" text-anchor="middle">關鍵幀</text>

  <!-- ══ 底層算力層 ══ -->
  <rect x="40" y="360" width="600" height="60" rx="12" class="bg-blue" stroke-width="0.5" opacity="0.5"/>
  <text class="th" x="340" y="380" text-anchor="middle" dominant-baseline="central" style="fill:#042C53">底層算力 — 零拷貝數據路徑</text>
  <text class="ts" x="340" y="400" text-anchor="middle" dominant-baseline="central">NVDEC → NVMM → CUDA Tensor  ·  TensorRT  ·  PagedAttention</text>

  <!-- 管線 → 算力層 -->
  <line x1="180" y1="310" x2="180" y2="358" class="arr" marker-end="url(#arrow)"/>
  <line x1="500" y1="310" x2="500" y2="358" class="arr" marker-end="url(#arrow)"/>

  <!-- ══ 基礎設施層 ══ -->
  <g class="c-gray">
    <rect x="40" y="450" width="180" height="52" rx="8" stroke-width="0.5"/>
    <text class="th" x="130" y="471" text-anchor="middle" dominant-baseline="central">狀態儲存</text>
    <text class="ts" x="130" y="488" text-anchor="middle" dominant-baseline="central">ChromaDB / Redis</text>
  </g>

  <g class="c-gray">
    <rect x="250" y="450" width="160" height="52" rx="8" stroke-width="0.5"/>
    <text class="th" x="330" y="471" text-anchor="middle" dominant-baseline="central">進程管理</text>
    <text class="ts" x="330" y="488" text-anchor="middle" dominant-baseline="central">Systemd + NVML</text>
  </g>

  <g class="c-gray">
    <rect x="440" y="450" width="200" height="52" rx="8" stroke-width="0.5"/>
    <text class="th" x="540" y="471" text-anchor="middle" dominant-baseline="central">環境管理</text>
    <text class="ts" x="540" y="488" text-anchor="middle" dominant-baseline="central">Nix Flakes + uv</text>
  </g>

  <!-- 算力層 → 基礎設施 -->
  <line x1="130" y1="420" x2="130" y2="448" class="arr" marker-end="url(#arrow)"/>
  <line x1="330" y1="420" x2="330" y2="448" class="arr" marker-end="url(#arrow)"/>
  <line x1="540" y1="420" x2="540" y2="448" class="arr" marker-end="url(#arrow)"/>

  <!-- 圖例 -->
  <rect x="40" y="552" width="12" height="12" rx="2" fill="#E1F5EE" stroke="#0F6E56" stroke-width="0.5"/>
  <text class="ts" x="58" y="562" dominant-baseline="central">快路徑</text>
  <rect x="120" y="552" width="12" height="12" rx="2" fill="#FAECE7" stroke="#993C1D" stroke-width="0.5"/>
  <text class="ts" x="138" y="562" dominant-baseline="central">慢路徑</text>
  <rect x="200" y="552" width="12" height="12" rx="2" fill="#E6F1FB" stroke="#185FA5" stroke-width="0.5"/>
  <text class="ts" x="218" y="562" dominant-baseline="central">算力層</text>
  <rect x="280" y="552" width="12" height="12" rx="2" fill="#F1EFE8" stroke="#5F5E5A" stroke-width="0.5"/>
  <text class="ts" x="298" y="562" dominant-baseline="central">基礎設施</text>
</svg>